<svg width="35" height="41" viewBox="0 0 35 41" fill="none" xmlns="http://www.w3.org/2000/svg">
<path d="M28.652 38.785C26.4878 40.8829 24.1249 40.5517 21.8503 39.5579C19.4433 38.5421 17.2349 38.4979 14.6953 39.5579C11.5153 40.9271 9.837 40.5296 7.93783 38.785C-2.83884 27.6771 -1.24883 10.7612 10.9853 10.1429C13.9666 10.2975 16.0424 11.7771 17.787 11.9096C20.3928 11.3796 22.8882 9.85583 25.6707 10.0546C29.0053 10.3196 31.5228 11.6446 33.1791 14.0296C26.2891 18.1592 27.9233 27.2354 34.2391 29.775C32.9803 33.0875 31.3462 36.3779 28.6299 38.8071L28.652 38.785ZM17.5662 10.0104C17.2349 5.08583 21.232 1.0225 25.8253 0.625C26.4658 6.3225 20.6578 10.5625 17.5662 10.0104Z" fill="black"/>
</svg>
