<svg width="43" height="43" viewBox="0 0 43 43" fill="none" xmlns="http://www.w3.org/2000/svg">
<g clip-path="url(#clip0_501_4180)">
<path d="M14.9795 1.4143C10.6832 2.90475 6.978 5.73367 4.40824 9.48554C1.83847 13.2374 0.539583 17.7145 0.702347 22.2591C0.865112 26.8037 2.48096 31.1764 5.31253 34.7348C8.14411 38.2933 12.0422 40.8499 16.4342 42.0291C19.9948 42.9479 23.7254 42.9883 27.3051 42.1467C30.548 41.4183 33.5461 39.8602 36.0059 37.625C38.566 35.2276 40.4243 32.1777 41.3809 28.8033C42.4207 25.1337 42.6057 21.2747 41.9217 17.5225H21.9267V25.8168H33.5065C33.2751 27.1397 32.7791 28.4023 32.0484 29.529C31.3176 30.6558 30.367 31.6235 29.2535 32.3743C27.8395 33.3097 26.2455 33.939 24.5739 34.222C22.8974 34.5337 21.1778 34.5337 19.5013 34.222C17.8021 33.8706 16.1946 33.1693 14.7813 32.1627C12.5109 30.5555 10.8061 28.2722 9.91025 25.6388C8.99924 22.9559 8.99924 20.0474 9.91025 17.3646C10.5479 15.4841 11.6021 13.7719 12.9942 12.3558C14.5871 10.7055 16.6039 9.52583 18.8232 8.94627C21.0425 8.36671 23.3785 8.40963 25.575 9.07031C27.2909 9.59704 28.86 10.5173 30.1572 11.7578C31.4629 10.4589 32.7663 9.15654 34.0675 7.85086C34.7394 7.14875 35.4717 6.48024 36.1335 5.76133C34.1534 3.91863 31.8291 2.48479 29.2938 1.54195C24.6771 -0.134408 19.6255 -0.179458 14.9795 1.4143Z" fill="white"/>
<path d="M14.9795 1.41434C19.6251 -0.180496 24.6766 -0.136631 29.2938 1.53864C31.8295 2.48788 34.1528 3.92863 36.1301 5.77817C35.4583 6.49708 34.7494 7.16895 34.0641 7.8677C32.7607 9.1689 31.4584 10.4656 30.1572 11.7579C28.8599 10.5174 27.2908 9.59708 25.575 9.07036C23.3792 8.40736 21.0432 8.36196 18.8234 8.93915C16.6035 9.51634 14.5855 10.6938 12.9908 12.3424C11.5987 13.7585 10.5446 15.4707 9.90686 17.3512L2.94287 11.9594C5.43555 7.01631 9.75148 3.23521 14.9795 1.41434Z" fill="#E33629"/>
<path d="M1.09526 17.3008C1.46957 15.4457 2.09099 13.6492 2.94292 11.9594L9.9069 17.3646C8.99589 20.0474 8.99589 22.9559 9.9069 25.6387C7.5867 27.4304 5.26537 29.231 2.94292 31.0406C0.810223 26.7954 0.159788 21.9585 1.09526 17.3008Z" fill="#F8BD00"/>
<path d="M21.9265 17.5192H41.9215C42.6055 21.2714 42.4205 25.1304 41.3807 28.7999C40.4241 32.1744 38.5658 35.2242 36.0057 37.6217C33.7583 35.8681 31.5008 34.1279 29.2533 32.3743C30.3676 31.6228 31.3186 30.654 32.0494 29.526C32.7802 28.3981 33.2757 27.1342 33.5063 25.8101H21.9265C21.9232 23.0487 21.9265 20.2839 21.9265 17.5192Z" fill="#587DBD"/>
<path d="M2.93945 31.0407C5.2619 29.249 7.58323 27.4484 9.90344 25.6388C10.8011 28.2732 12.5083 30.5566 14.7812 32.1627C16.1989 33.1647 17.8098 33.8603 19.5113 34.2052C21.1878 34.5169 22.9074 34.5169 24.5839 34.2052C26.2555 33.9222 27.8495 33.2929 29.2635 32.3575C31.5109 34.1111 33.7684 35.8513 36.0159 37.6049C33.5564 39.8413 30.5583 41.4006 27.3151 42.13C23.7354 42.9715 20.0048 42.9312 16.4441 42.0124C13.628 41.2605 10.9975 39.9349 8.71758 38.1189C6.30441 36.203 4.33344 33.7885 2.93945 31.0407Z" fill="#319F43"/>
</g>
<defs>
<clipPath id="clip0_501_4180">
<rect width="43" height="43" fill="white"/>
</clipPath>
</defs>
</svg>
